<svg id="Layer_1" xmlns="http://www.w3.org/2000/svg" viewBox="0 0 553 267"><style>.st0{fill:#1aa3dd}.st1{fill:#006a97}</style><path class="st0" d="M51.3 178.2L-.1 148.5v59.3l51.4 29.7 51.3 29.6v-59.3z"/><path class="st1" d="M51.3 59.6L-.1 89.2v59.3l51.4 29.7v-59.3l51.3-29.7V29.9zM154 178.2l-51.4 29.6v59.3l51.4-29.6 51.3-29.7h.1v-59.3z"/><path class="st0" d="M154 .3v177.9l51.4-29.7V29.9z"/><path class="st1" d="M240 196.9c0-6.4 4.4-11.9 10.5-11.9 4 0 7.2 2.5 8.9 5.4v-14.2h2.2v29c0 .7.3 1.1.9 1.1v2h-.7c-1.3 0-2.2-1-2.2-2v-2.6c-1.8 3-5.3 5-8.7 5-6.3 0-10.9-5.8-10.9-11.8zm19.5 3.7V193c-1.2-3.3-5.1-6.1-8.4-6.1-5.3 0-8.8 4.9-8.8 9.9 0 5.2 4 9.8 9.1 9.8 3.2.1 7.7-2.7 8.1-6zm6.5-3.9c0-6.5 4.8-11.7 11.2-11.7 6.5 0 11.2 5.4 11.2 11.7v1h-20.1c.4 5.3 4.4 9.2 9.1 9.2 3.2 0 6.3-1.8 7.5-4.4l1.9.5c-1.4 3.3-5.2 5.6-9.5 5.6-6.4.1-11.3-5.4-11.3-11.9zm20.3-.8c-.4-5.4-4.2-9.1-9.1-9.1-4.8 0-8.7 3.8-9 9.1h18.1zm4.7-10.5l7.3 9.5.4.6.4-.6 7.3-9.5h2.4l-8.9 11.5 8.9 11.4h-2.5l-7.3-9.4-.4-.6-.4.6-7.3 9.4h-2.5l8.9-11.4-8.9-11.5h2.6zm31.1 21.8c-.4.3-2.4 1.4-4.8 1.4s-4.5-1.5-4.5-4.1v-17.2h-3.2v-1.8h3.2v-7.8h2.2v7.8h5.4v1.8H315V204c0 1.7 1.4 2.6 2.9 2.6 1.8 0 3.3-.9 3.6-1.1l.6 1.7zm1.1-10.5c0-6.5 4.8-11.7 11.2-11.7 6.5 0 11.2 5.4 11.2 11.7v1h-20.1c.4 5.3 4.4 9.2 9.1 9.2 3.2 0 6.3-1.8 7.5-4.4l1.9.5c-1.4 3.3-5.2 5.6-9.5 5.6-6.5.1-11.3-5.4-11.3-11.9zm20.2-.8c-.4-5.4-4.2-9.1-9.1-9.1-4.8 0-8.7 3.8-9 9.1h18.1zm16.7-8.5c-4.1.1-7.4 2.6-8.6 6.6v14.3h-2.2v-22.9h2.1v5.6c1.6-3.2 4.4-5.4 7.3-5.7h1.4v2.1zm.3 9.5c0-6.4 4.9-11.9 11.2-11.9 6.3 0 11.2 5.5 11.2 11.9s-4.8 11.8-11.2 11.8c-6.4 0-11.2-5.5-11.2-11.8zm11.2 9.8c4.9 0 9-4.4 9-9.9 0-5.4-4.1-9.9-9-9.9-4.8 0-8.9 4.5-8.9 10s4 9.8 8.9 9.8zm15-8.1v-13.2h2.2v12.9c0 5.7 1.9 8.4 5.8 8.4s7.6-2.8 8.9-6.9v-14.4h2.2v19.8c0 .7.3 1.1.9 1.1v2h-.8c-1.2 0-2.1-.8-2.1-2v-3.5c-2 3.7-5.8 5.9-9.8 5.9-4.8 0-7.3-3.4-7.3-10.1zm23 6.6l1.1-1.5c2.5 2.2 5.1 3.3 8.2 3.3 4 0 6.6-1.8 6.6-4.8 0-2.9-2.5-3.6-7.3-4.8-5.2-1.2-7.6-2.1-7.6-5.7 0-4.6 3.8-6.8 8.4-6.8 3.6 0 6.5 1.3 8 3.2l-1.2 1.2c-1.5-1.8-4.1-2.6-6.9-2.6-3.4 0-6.2 1.4-6.2 4.7 0 2.6 1.8 3.2 6 4.2 5.8 1.4 8.9 2.4 8.9 6.3 0 4.1-3.5 6.7-8.8 6.7-3.4.1-6.8-1.1-9.2-3.4zm30.9-8.3c0-6.4 4.4-11.9 10.5-11.9 4 0 7.2 2.5 8.9 5.4v-14.2h2.2v29c0 .7.3 1.1.9 1.1v2h-.7c-1.3 0-2.2-1-2.2-2v-2.6c-1.8 3-5.3 5-8.7 5-6.3 0-10.9-5.8-10.9-11.8zm19.4 3.7V193c-1.2-3.3-5.1-6.1-8.4-6.1-5.3 0-8.8 4.9-8.8 9.9 0 5.2 4 9.8 9.1 9.8 3.3.1 7.8-2.7 8.1-6zm8.1-20.4v-4h2.2v4H468zm0 28.1v-22.9h2.2v22.9H468zm6.4-11.4c0-6.2 4.4-11.9 10.6-11.9 4 0 6.9 2.4 9 5.4v-5h2v23.3c0 6.2-5 9.4-10.8 9.4-5.3 0-8.2-2.1-10.2-5.3l1.5-1c1.8 3.1 5.1 4.5 8.7 4.5 4.7 0 8.6-2.6 8.6-7.6v-5c-1.8 2.9-5.2 4.9-8.6 4.9-6.3 0-10.8-5.7-10.8-11.7zm19.4 3.7V193c-1.4-3.5-4.9-6.1-8.4-6.1-5.5 0-8.8 5.1-8.8 9.9 0 5.2 4 9.8 9.1 9.8 3.9.1 7.7-3.1 8.1-6zm7.9-20.4v-4h2.2v4h-2.2zm0 28.1v-22.9h2.2v22.9h-2.2zm18.1-1.1c-.4.3-2.4 1.4-4.8 1.4s-4.5-1.5-4.5-4.1v-17.2h-3.2v-1.8h3.2v-7.8h2.2v7.8h5.4v1.8h-5.4V204c0 1.7 1.4 2.6 2.9 2.6 1.8 0 3.3-.9 3.6-1.1l.6 1.7zm.7-5.6c0-4 4-6.8 9.5-6.8 2.5 0 5.1.5 7.1 1.2v-2.2c0-4.3-2.7-7.1-6.9-7.1-2.3 0-4.8 1-7.3 2.7l-.9-1.5c2.9-2 5.7-3 8.4-3 5.5 0 8.9 3.4 8.9 9v11.2c0 .7.3 1.1.9 1.1v2h-.8c-1.1 0-2.1-.8-2.1-2v-1.9c-2.1 2.7-5.5 4.3-9.3 4.3-4.2.1-7.5-3-7.5-7zm15.9 1.8c.5-.6.8-1.2.8-1.8v-4c-2.2-.8-4.5-1.2-6.9-1.2-4.6 0-7.7 2.1-7.7 5.1 0 3.1 2.6 5.5 5.9 5.5 3.4-.1 6.5-1.4 7.9-3.6zm8.7-27.3h2.2v27.6c0 1.7 1.1 2.8 2.7 2.8.7 0 1.7-.2 2.4-.4l.4 1.8c-1 .4-2.7.7-3.7.7-2.5 0-4.1-1.6-4.1-4.1v-28.4z"/><path class="st0" d="M279.8 71.9v25.7c-1.6-.9-3.6-1.6-5.8-2.3-2.3-.7-4.9-1-7.8-1-4.4 0-8.2.8-11.6 2.3-3.3 1.5-6.2 3.7-8.5 6.5s-4.1 6.2-5.3 10.1c-1.2 3.9-1.8 8.3-1.8 13.1 0 4.9.7 9.3 2.2 13.2 1.4 3.9 3.5 7.3 6.2 10 2.7 2.8 5.9 4.9 9.7 6.4 3.8 1.5 8.1 2.2 13 2.2 4.7 0 21.2-.7 23.9-1.1V63.7l-14.2 8.2zm0 73c-1 .2-7.2.7-9.9.6-3.5-.2-9.1-1.4-12.1-4.9-3-3.5-4.4-8.4-4.4-14.6 0-6 1.2-10.7 3.6-14.2 2.4-3.5 6.1-5.3 11.3-5.3 2.3 0 4.5.4 6.6 1.1 2.1.7 3.7 1.5 5 2.4v34.9zM336.3 125.1l20.5-29.2H342l-13 18.7-12.9-18.7h-15.5l20.7 29.8c-2 2.4-4 5-6.1 7.7-2 2.7-4 5.4-5.9 8.1-1.9 2.7-3.7 5.4-5.4 7.9-1.7 2.6-3.1 5.1-4.3 7.4H314c1.7-3 3.9-6.4 6.5-10.2 2.6-3.8 5.3-7.3 8-10.5 1.3 1.6 2.7 3.3 4.1 5.1 1.4 1.8 2.7 3.7 4 5.5 1.3 1.9 2.5 3.6 3.6 5.4 1.1 1.7 2 3.3 2.7 4.7h15.4c-2.5-4.8-5.8-10-9.7-15.5-3.9-5.3-8-10.8-12.3-16.2zm98.8-29.2c-.7 3.3-1.5 6.8-2.5 10.6-.9 3.8-1.9 7.6-3 11.6-1.1 3.9-2.1 7.8-3.2 11.5s-2.2 7.2-3.2 10.3c-1.2-3.6-2.3-7.3-3.4-11.1s-2.2-7.6-3.1-11.4c-1-3.8-1.9-7.5-2.7-11.2-.9-3.6-1.6-7-2.3-10.2h-10.9c-.7 3.2-1.5 6.6-2.4 10.2-.9 3.6-1.9 7.3-2.9 11.2-1 3.8-2.1 7.6-3.2 11.4-1.1 3.8-2.3 7.5-3.5 11.1-1.1-3.1-2.2-6.5-3.3-10.3-1.1-3.7-2.1-7.6-3.2-11.5-1-3.9-2-7.8-2.9-11.6-.9-3.8-1.8-7.3-2.5-10.6h-15c1.6 6 3.3 11.9 5 17.6 1.7 5.8 3.4 11.2 5.2 16.5 1.7 5.2 3.4 10.1 5.1 14.7 1.7 4.6 3.4 8.7 4.9 12.3h11.6c2-5.8 4.1-11.9 6.1-18.4 2.1-6.5 4-13.2 5.8-20 1.8 6.8 3.7 13.5 5.9 20 2.1 6.5 4.2 12.6 6.2 18.4h11.5c1.6-3.6 3.3-7.7 5-12.3 1.7-4.6 3.4-9.5 5.1-14.7 1.7-5.2 3.4-10.7 5.1-16.5 1.7-5.8 3.4-11.6 5-17.6h-14.3z"/></svg>