<svg id="Layer_1" xmlns="http://www.w3.org/2000/svg" viewBox="0 0 298 387"><style>.st0{display:none;fill:#fff}.st1{fill:#1aa3dd}.st2{fill:#006a97}</style><path class="st0" d="M73 260.3L0 218.1v84.3l73 42.1 72.9 42.2v-84.3zm0-174.2L0 128.2v84.3l73 42.1v-84.3l72.9-42.1V43.9zm151.6 174.2l-73 42.1v84.3l73-42.2 72.9-42.1h.1v-84.3zm0-259.9v252.8l73-42.2V42.5z"/><path class="st1" d="M74.8 258L.3 215v86l74.5 43 74.5 43v-86z"/><path class="st2" d="M74.8 86L.3 129v86l74.5 43v-86l74.5-43V43zm148.9 172l-74.4 43v86l74.4-43 74.5-43v-86z"/><path class="st1" d="M223.7 0v258l74.5-43V43z"/></svg>