<svg version="1" xmlns="http://www.w3.org/2000/svg" width="1552" height="1552" viewBox="0 0 1164.000000 1164.000000"><path d="M112.9 1.8c0 .9-.2 262.8-.5 581.9L112 1164l205.7-.3c113.2-.2 208.3-.6 211.3-.9 3-.4 8.4-.9 12-1.3 3.6-.4 8.2-.7 10.3-.8 2-.1 3.7-.4 3.7-.7 0-.3 1.5-.5 3.3-.6 1.7 0 4.8-.3 6.7-.7 1.9-.3 6-.9 9-1.2 3-.4 6-1.1 6.6-1.6.6-.5 1.4-.6 1.7-.3.3.4 2.8.1 5.4-.5 2.6-.6 6.2-1.3 7.8-1.6 1.7-.3 4-.7 5.3-1 9.5-2.1 13.6-2.9 14.5-2.7.4.1.7-.2.7-.6 0-.4 1-.9 2.3-1 2.9-.3 4.3-.6 9.7-2.1 2.5-.8 5.2-1.5 6-1.6.8-.2 1.5-.4 1.5-.5 0-.1.8-.3 1.7-.5 5.2-1 38.2-11.9 48.3-16 1.1-.5 2.2-.9 2.5-.9.3-.1 1.4-.7 2.5-1.3 1.1-.6 2.3-1.2 2.7-1.2 1.6-.3 5.5-1.8 15.3-6.1 1.1-.4 9.1-4.2 17.8-8.4 8.6-4.2 16.2-7.6 16.7-7.6.6 0 1-.5 1-1 0-.6.5-1 1-1 .6 0 2.8-1.1 5-2.5s4-2.3 4-1.9c0 .3 1.2-.4 2.6-1.5 1.5-1.2 3.3-2.1 4-2.1.7 0 1.7-.8 2.3-1.8.5-.9 1.1-1.5 1.3-1.2.3.5 11.9-5.9 12.8-7 .3-.4 1.6-1.3 3-2 4.3-2.3 29.5-19.2 29.8-20.1.2-.5 1-.9 1.8-.9s1.7-.7 2-1.5c.4-.8 1-1.5 1.5-1.5.8 0 1.7-.6 7.1-5.3 1.2-.9 2.4-1.7 2.7-1.7.3 0 1.7-1 3.1-2.3 1.4-1.2 4.1-3.4 6-4.8 1.9-1.5 5.1-4.1 7-5.8 1.9-1.7 4-3.4 4.5-3.8 15.4-11.8 50-46.5 68.7-68.8 1.8-2.2 4.1-4.9 5-6 4.7-5.5 13.8-17.5 13.8-18.2 0-.5.9-1.4 2.1-2.1 1.2-.7 1.9-1.6 1.6-1.9-.3-.2.2-1.3 1.1-2.3 2.8-3 3.9-4.5 5.1-6.7.6-1.2 1.7-2.7 2.4-3.5 4.2-4.3 31.4-48.3 30.9-50.1-.1-.4.1-.7.6-.7.4 0 4.3-7.1 8.7-15.7 4.4-8.7 8.4-16.1 8.8-16.4.5-.3.8-.8.7-1-.2-.6 1.5-4.8 5.1-12.4 1.8-3.9 3.4-7.5 3.6-8 .1-.6 3.1-8.1 6.7-16.8 3.5-8.6 6.2-15.7 6.1-15.7-.2 0 .7-2.8 2.1-6.1 1.3-3.4 2.1-6.5 1.9-6.9-.3-.5-.1-1 .5-1.2.6-.2 1.2-1.2 1.4-2.3.2-1.1 1.3-5 2.5-8.7 4.2-13.6 5.9-19.4 6.7-22.8 1.1-4.8 1.1-5 1.4-5.3.2-.2.6-2 1.4-5.7.6-2.6.9-3.7 2.5-10.5.5-2.2 1.2-5.1 1.5-6.5.2-1.4 1.1-5.9 2-10 .8-4.1 1.7-9.1 2-11 .3-1.9.7-4.4 1-5.5 1.5-7.5 3.5-21.6 4.1-29 .2-2.8.7-6.1.9-7.5.5-2.4.8-6.2 2.3-25.5 1-12.5.9-69.1-.1-80-.4-5-.9-11.4-1-14.2 0-2.9-.3-5.3-.6-5.3s-.6-1.9-.7-4.3c-.1-2.3-.5-6-.8-8.2-.3-2.2-.7-6-.9-8.5-.2-2.5-.5-4.5-.6-4.5-.1 0-.3-1.6-.6-3.5-.2-1.9-.6-4.6-.8-6-.3-1.4-1-5.2-1.5-8.5-.6-3.3-2-10.3-3-15.5-1.1-5.2-2.2-10.6-2.5-12-.3-1.4-.7-3.5-1-4.8-1.1-4.4-1.7-6.7-2-7.7-.2-.6-.6-2.8-1.1-5-.4-2.2-1-4.5-1.4-5-.3-.6-.6-1.5-.7-2-.3-1.8-3.1-11.8-5.8-20.5-1.5-4.7-2.8-9.2-3.1-10-.8-3.5-7.8-22.8-9.6-26.7-1-2.3-1.9-4.7-1.9-5.3 0-1-1-3.3-6.1-14.8-1.2-2.6-2.2-5.3-2.2-6 0-.6-.4-1.2-.9-1.2-.4 0-.8-.7-.8-1.5s-.9-2.9-1.9-4.7c-1.1-1.7-1.8-3.5-1.5-4 .3-.4 0-.8-.5-.8-.6 0-1.1-.5-1.1-1.2 0-2.6-25.2-50.1-29.5-55.8-.7-.8-2.3-3.5-3.6-6-1.3-2.5-2.9-5-3.4-5.6-.6-.6-3.1-4.2-5.5-8-2.5-3.8-4.9-7.4-5.5-8.1-.5-.7-1.6-1.9-2.3-2.8-.7-.8-1-1.5-.7-1.5.4 0-.5-1.5-1.9-3.3-3-3.7-2.6-3.2-8.9-11.7-2.7-3.6-6.2-8.2-7.8-10.2-1.7-2-3-4-2.9-4.3.1-.4-.5-1.2-1.3-1.8-.8-.7-4.5-4.8-8.2-9.2-16.8-20.1-49.9-53.9-63.1-64.5-4.4-3.5-13-10.6-14.9-12.3-1.1-1-6.3-5.1-11.5-9-5.2-4-10.3-8-11.4-9-1.1-.9-2.6-1.7-3.3-1.7-.8 0-1.1-.5-.8-1 .3-.6 0-1-.8-1-.7 0-2.2-.8-3.3-1.8-1.1-.9-2.7-2.2-3.6-2.7-.8-.6-4.2-2.8-7.4-5-6.8-4.6-9.3-6.1-11.4-7.2-.8-.4-2.4-1.5-3.4-2.5-1.1-1-2.3-1.8-2.7-1.8-.5 0-3.7-1.8-7.1-4-3.5-2.2-6.9-4-7.5-4-.7 0-1.3-.4-1.3-.8 0-.5-3.4-2.5-7.5-4.6-4.1-2.1-7.7-4.2-8.1-4.7-.3-.5-1-.7-1.5-.4-.5.4-.9.1-.9-.5s-.4-.9-.9-.6c-.5.4-1.1.3-1.3-.1-.1-.5-2.8-1.9-5.8-3.3s-5.7-2.7-6-3c-.6-.6-3.1-1.8-11.5-5.6-15.4-6.9-23.4-10.1-23.9-9.6-.3.3-.6.1-.6-.5s-2.1-1.6-4.7-2.3c-2.7-.8-5-1.6-5.3-1.9-.3-.4-6.3-2.6-13.5-5-7.1-2.3-13.9-4.6-15-5.1-1.1-.4-5.4-1.8-9.5-2.9-4.1-1.2-8.9-2.6-10.7-3.2-1.8-.5-4-1.2-5-1.4-1-.1-4.5-1-7.8-1.8-3.3-.9-7.1-1.8-8.5-2.1-1.4-.3-5.6-1.2-9.5-2.1-8.7-1.9-13.5-2.8-15.7-2.9-1 0-1.8-.3-1.8-.6s-.8-.6-1.7-.6c-2.4-.1-11.4-1.4-13.3-1.9-1.9-.5-11.8-1.8-14.7-1.8-1.3-.1-2.3-.3-2.3-.7 0-.3-2.4-.5-5.3-.6-2.8-.1-8.3-.4-12.2-.9-3.8-.4-9.5-.9-12.5-1.2-3-.2-96.7-.6-208.2-.9C123.6 0 113 .1 112.9 1.8z"/></svg>