<?xml version="1.0" standalone="no"?>
<!DOCTYPE svg PUBLIC "-//W3C//DTD SVG 20010904//EN"
 "http://www.w3.org/TR/2001/REC-SVG-20010904/DTD/svg10.dtd">
<svg version="1.0" xmlns="http://www.w3.org/2000/svg"
 width="1000.000000pt" height="1000.000000pt" viewBox="0 0 1000.000000 1000.000000"
 preserveAspectRatio="xMidYMid meet">
<metadata>
Created by potrace 1.14, written by Peter Selinger 2001-2017
</metadata>
<g transform="translate(0.000000,1000.000000) scale(0.100000,-0.100000)"
fill="#000000" stroke="none">
<path d="M3210 5030 l0 -2650 928 0 c532 0 976 4 1042 10 619 54 1179 306
1623 731 355 338 614 779 731 1244 61 241 80 399 80 660 0 231 -8 323 -51 535
-150 750 -628 1402 -1308 1787 -313 178 -683 290 -1065 323 -66 6 -511 10
-1047 10 l-933 0 0 -2650z"/>
</g>
</svg>
