<?xml version="1.0" standalone="no"?>
<!DOCTYPE svg PUBLIC "-//W3C//DTD SVG 20010904//EN"
 "http://www.w3.org/TR/2001/REC-SVG-20010904/DTD/svg10.dtd">
<svg version="1.0" xmlns="http://www.w3.org/2000/svg"
 width="1000.000000pt" height="1000.000000pt" viewBox="0 0 1000.000000 1000.000000"
 preserveAspectRatio="xMidYMid meet">
<metadata>
Created by potrace 1.14, written by Peter Selinger 2001-2017
</metadata>
<g transform="translate(0.000000,1000.000000) scale(0.100000,-0.100000)"
fill="#000000" stroke="none">
<path d="M0 5000 l0 -5000 5000 0 5000 0 0 5000 0 5000 -5000 0 -5000 0 0
-5000z m5008 2587 c594 -96 1090 -349 1488 -758 389 -402 622 -876 711 -1449
25 -162 25 -548 0 -710 -92 -594 -347 -1096 -758 -1496 -400 -388 -867 -618
-1441 -711 -90 -15 -229 -17 -1090 -20 l-988 -4 0 2586 0 2586 988 -4 c861 -3
1000 -5 1090 -20z"/>
</g>
</svg>
